<?xml version="1.0" encoding="utf-8"?>
<!-- Generator: Adobe Illustrator 24.1.2, SVG Export Plug-In . SVG Version: 6.00 Build 0)  -->
<svg version="1.1" id="Warstwa_1" xmlns="http://www.w3.org/2000/svg" xmlns:xlink="http://www.w3.org/1999/xlink" x="0px" y="0px"
	 viewBox="0 0 430 430" style="enable-background:new 0 0 430 430;" xml:space="preserve">
<style type="text/css">
	.st0{fill:#121331;}
	.st1{fill:#08a88a;}
	.st2{fill:none;stroke:#121331;stroke-width:12;stroke-linecap:round;stroke-linejoin:round;stroke-miterlimit:10;}
	.st3{fill:#00A689;}
</style>
<g>
	<path class="st1" d="M202.33,185.69L202.33,185.69c-1.59,0-3.12-0.63-4.24-1.76l-12.69-12.69c-2.34-2.34-2.34-6.14,0-8.49
		c2.34-2.34,6.14-2.34,8.49,0l8.44,8.44l33.79-33.79c2.34-2.34,6.14-2.34,8.49,0c2.34,2.34,2.34,6.14,0,8.49l-38.03,38.03
		C205.44,185.05,203.92,185.69,202.33,185.69z"/>
	<g>
		<path class="st0" d="M327.8,153.76L306.15,128l2.38-33.57c0.21-2.91-1.71-5.55-4.54-6.25l-32.67-8.09l-17.78-28.58
			c-1.54-2.48-4.65-3.49-7.35-2.39L215,61.8l-31.18-12.68c-2.71-1.1-5.81-0.09-7.35,2.39l-17.78,28.58l-32.67,8.09
			c-2.83,0.7-4.75,3.34-4.54,6.25l2.38,33.57l-21.65,25.76c-1.88,2.23-1.88,5.49,0,7.72l21.65,25.76l-2.38,33.57
			c-0.21,2.91,1.71,5.55,4.54,6.25l13.6,3.37v144.89c0,2.3,1.31,4.4,3.38,5.4c2.07,1,4.53,0.73,6.33-0.69L215,328.17l65.66,51.85
			c1.08,0.85,2.39,1.29,3.72,1.29c0.89,0,1.78-0.2,2.62-0.6c2.07-1,3.38-3.1,3.38-5.4V230.42l13.6-3.37
			c2.83-0.7,4.75-3.34,4.54-6.25l-2.38-33.57l21.65-25.76C329.67,159.25,329.67,155.99,327.8,153.76z M278.38,362.93l-59.66-47.12
			c-2.18-1.72-5.26-1.72-7.44,0l-59.66,47.12V233.39l7.06,1.75l17.78,28.58c1.54,2.48,4.65,3.49,7.35,2.39L215,253.43l31.18,12.68
			c0.74,0.3,1.5,0.44,2.26,0.44c2.02,0,3.97-1.03,5.1-2.83l17.78-28.58l7.06-1.75V362.93z M295.4,181.38c-1,1.19-1.5,2.73-1.39,4.28
			l2.19,30.96l-30.13,7.46c-1.52,0.38-2.83,1.33-3.65,2.66l-16.39,26.35l-28.76-11.69c-0.72-0.29-1.49-0.44-2.26-0.44
			s-1.54,0.15-2.26,0.44l-28.76,11.69l-16.39-26.35c-0.83-1.33-2.14-2.28-3.65-2.66l-30.13-7.46l2.2-30.96
			c0.11-1.56-0.39-3.09-1.39-4.29l-19.97-23.76l19.97-23.76c1-1.19,1.5-2.73,1.39-4.28l-2.19-30.96l30.13-7.46
			c1.52-0.38,2.83-1.33,3.65-2.66l16.39-26.35l28.76,11.69c1.45,0.59,3.07,0.59,4.52,0l28.76-11.69l16.39,26.35
			c0.83,1.33,2.14,2.28,3.65,2.66l30.13,7.46l-2.2,30.96c-0.11,1.56,0.39,3.09,1.39,4.29l19.97,23.76L295.4,181.38z"/>
		<path class="st0" d="M215,89.26c-37.69,0-68.36,30.67-68.36,68.36s30.66,68.36,68.36,68.36s68.36-30.66,68.36-68.36
			S252.69,89.26,215,89.26z M215,213.97c-31.07,0-56.36-25.28-56.36-56.36c0-31.08,25.28-56.36,56.36-56.36s56.36,25.28,56.36,56.36
			C271.36,188.69,246.07,213.97,215,213.97z"/>
	</g>
</g>
</svg>
