<?xml version="1.0" encoding="utf-8"?>
<!-- Generator: Adobe Illustrator 25.0.1, SVG Export Plug-In . SVG Version: 6.00 Build 0)  -->
<svg version="1.1" id="Layer_1" xmlns="http://www.w3.org/2000/svg" xmlns:xlink="http://www.w3.org/1999/xlink" x="0px" y="0px"
	 viewBox="0 0 430 430" style="enable-background:new 0 0 430 430;" xml:space="preserve">
<style type="text/css">
	.st0{fill:#121331;}
	.st1{fill:#08a88a;}
</style>
<path class="st0" d="M361.9,255.4h-39.8c-3.3,0-6-2.7-6-6s2.7-6,6-6h33.8v-73.9c0-41.6-33.8-75.4-75.4-75.4h-92.9
	c-19.9,0-38.7,7.8-52.8,21.9c-14.1,14.1-21.9,32.8-21.9,52.8c0,6.9,0.9,13.8,2.8,20.4c0.9,3.2-1,6.5-4.1,7.4c-3.2,0.9-6.5-1-7.4-4.1
	c-2.2-7.7-3.3-15.6-3.3-23.7c0-23.2,9-44.9,25.4-61.3c16.4-16.4,38.1-25.4,61.3-25.4h92.9c48.2,0,87.4,39.2,87.4,87.4v79.9
	C367.9,252.7,365.2,255.4,361.9,255.4z"/>
<path class="st1" d="M242.3,347.9H68.1c-3.3,0-6-2.7-6-6V262c0-48.2,39.2-87.4,87.4-87.4h92.9c47.8,0,86.6,38.9,86.6,86.6
	S290.1,347.9,242.3,347.9z M74.1,335.9h168.2c41.2,0,74.6-33.5,74.6-74.6c0-41.2-33.5-74.6-74.6-74.6h-92.9
	c-41.6,0-75.4,33.8-75.4,75.4V335.9z"/>
</svg>
